<?xml version="1.0" encoding="utf-8"?>
<!-- Generator: Adobe Illustrator 18.1.1, SVG Export Plug-In . SVG Version: 6.00 Build 0)  -->
<!DOCTYPE svg PUBLIC "-//W3C//DTD SVG 1.1//EN" "http://www.w3.org/Graphics/SVG/1.1/DTD/svg11.dtd">
<svg version="1.1" id="Layer_1" xmlns="http://www.w3.org/2000/svg" xmlns:xlink="http://www.w3.org/1999/xlink" x="0px" y="0px"
	 viewBox="0 0 131 131" style="enable-background:new 0 0 131 131;" xml:space="preserve">
<style type="text/css">
	.st0{fill:#58595B;}
	.st1{fill:#FFFFFF;}
</style>
<g id="Social_3_">
	<g>
		<path class="st0" d="M131,65.5c0,36.2-29.3,65.5-65.5,65.5C29.3,131,0,101.7,0,65.5C0,29.3,29.3,0,65.5,0
			C101.7,0,131,29.3,131,65.5z"/>
		<g>
			<path class="st1" d="M54.6,106.4h17c0,0,0-22.6,0-40.9H83l1.5-14.5h-13v-8.5c0-3.2,2.1-3.9,3.6-3.9s9.1,0,9.1,0v-14l-12.6,0
				c-14,0-17.2,10.5-17.2,17.2v9.4h-8.1v14.5h8.1C54.6,84.1,54.6,106.4,54.6,106.4z"/>
		</g>
	</g>
</g>
</svg>
