<?xml version="1.0" encoding="utf-8"?>
<!-- Generator: Adobe Illustrator 18.1.1, SVG Export Plug-In . SVG Version: 6.00 Build 0)  -->
<!DOCTYPE svg PUBLIC "-//W3C//DTD SVG 1.1//EN" "http://www.w3.org/Graphics/SVG/1.1/DTD/svg11.dtd">
<svg version="1.1" id="Layer_1" xmlns="http://www.w3.org/2000/svg" xmlns:xlink="http://www.w3.org/1999/xlink" x="0px" y="0px"
	 viewBox="0 0 131 131" style="enable-background:new 0 0 131 131;" xml:space="preserve">
<style type="text/css">
	.st0{fill:#58595B;}
	.st1{fill:#FFFFFF;}
</style>
<g>
	<path class="st0" d="M131,65.5c0,36.2-29.3,65.5-65.5,65.5C29.3,131,0,101.7,0,65.5C0,29.3,29.3,0,65.5,0
		C101.7,0,131,29.3,131,65.5z"/>
	<g>
		<path class="st1" d="M87.2,79.6h3.5c0.9,0,1.7-0.8,1.7-1.7V65.5h12.4c0.9,0,1.7-0.8,1.7-1.7v-3.5c0-0.9-0.8-1.7-1.7-1.7H92.4V46.2
			c0-0.9-0.8-1.7-1.7-1.7h-3.5c-0.9,0-1.7,0.8-1.7,1.7v12.3H73.1c-0.9,0-1.7,0.8-1.7,1.7v3.5c0,0.9,0.8,1.7,1.7,1.7h12.3v12.3
			C85.5,78.8,86.2,79.6,87.2,79.6z"/>
		<path class="st1" d="M38.5,101.1c3.1,0.8,6.5,1.2,10,1.2c3.1,0,6.1-0.4,8.9-1.2c8.6-2.5,14.2-8.8,14.2-16.2c0-7-2.3-11.2-8.3-15.5
			c-2.6-1.8-5-4.5-5-5.4c0-1.5,0.1-2.2,3.5-4.9c4.4-3.4,6.8-7.9,6.8-12.7c0-4.3-1.3-8.1-3.6-10.8h1.7c0.4,0,0.7-0.1,1-0.3l4.9-3.5
			c0.6-0.4,0.9-1.2,0.6-1.9s-0.9-1.2-1.6-1.2H49.9c-2.4,0-4.8,0.4-7.2,1.2c-7.9,2.7-13.4,9.5-13.4,16.4c0,9.8,7.6,17.2,17.8,17.5
			c-0.2,0.8-0.3,1.5-0.3,2.3c0,1.5,0.4,2.9,1.2,4.3c-0.1,0-0.2,0-0.3,0c-9.7,0-18.4,4.8-21.7,11.8c-0.9,1.8-1.3,3.7-1.3,5.5
			c0,1.8,0.5,3.5,1.4,5.1C28,96.7,32.5,99.6,38.5,101.1z M40.5,46.1c-0.5-3.6,0.3-6.8,2.1-8.9c1.2-1.3,2.7-2,4.4-2l0.2,0
			c4.8,0.1,9.4,5.5,10.2,11.9c0.5,3.6-0.3,7-2.1,9.1c-1.2,1.3-2.6,2-4.4,2c0,0,0,0,0,0h-0.1C46,58.1,41.3,52.5,40.5,46.1z
			 M49.7,75.9h0.2c1.6,0,3.2,0.3,4.7,0.7c0.5,0.4,1,0.7,1.5,1c3.4,2.3,5.7,3.9,6.3,6.3c0.1,0.6,0.2,1.2,0.2,1.8
			c0,6.4-4.7,9.6-14.1,9.6c-7.1,0-12.6-4.3-12.6-9.9C35.8,80.4,42.3,75.9,49.7,75.9z"/>
	</g>
</g>
</svg>
