<?xml version="1.0" encoding="utf-8"?>
<!-- Generator: Adobe Illustrator 18.1.1, SVG Export Plug-In . SVG Version: 6.00 Build 0)  -->
<!DOCTYPE svg PUBLIC "-//W3C//DTD SVG 1.1//EN" "http://www.w3.org/Graphics/SVG/1.1/DTD/svg11.dtd">
<svg version="1.1" id="Layer_1" xmlns="http://www.w3.org/2000/svg" xmlns:xlink="http://www.w3.org/1999/xlink" x="0px" y="0px"
	 viewBox="0 0 131 131" style="enable-background:new 0 0 131 131;" xml:space="preserve">
<style type="text/css">
	.st0{fill:#58595B;}
	.st1{fill:#FFFFFF;}
</style>
<g>
	<path class="st0" d="M131,65.5c0,36.2-29.3,65.5-65.5,65.5C29.3,131,0,101.7,0,65.5C0,29.3,29.3,0,65.5,0
		C101.7,0,131,29.3,131,65.5z"/>
	<g>
		<path class="st1" d="M101.1,53.9c-0.1-0.1-0.2-0.1-0.4-0.2V33.8c0-0.6-0.5-1.1-1.1-1.1H73.5c-0.1-0.1-0.1-0.1-0.2-0.2l-6.5-5
			c-0.7-0.6-2-0.6-2.7,0l-6.5,5c-0.1,0.1-0.2,0.2-0.2,0.2H31.4c-0.6,0-1.1,0.5-1.1,1.1v19.9c-0.1,0-0.3,0.1-0.4,0.2l-4,3.1
			c-0.7,0.6-1.3,1.8-1.3,2.7V105c0,0.9,0.8,1.7,1.7,1.7h78.5c0.9,0,1.7-0.8,1.7-1.7V59.7c0-0.9-0.6-2.2-1.4-2.7L101.1,53.9z
			 M95.1,66.5c0,0.6-0.4,1.3-0.9,1.6L66.4,82.9c-0.5,0.3-1.3,0.3-1.8,0L36.9,68c-0.5-0.3-0.9-1-0.9-1.6V38.3c0-0.6,0.5-1.1,1-1.1h57
			c0.6,0,1.1,0.5,1.1,1.1V66.5z"/>
		<rect x="42.2" y="46.2" class="st1" width="16.4" height="16.4"/>
		<rect x="63.3" y="46.2" class="st1" width="27.7" height="3"/>
		<rect x="63.3" y="52.4" class="st1" width="27.7" height="3"/>
		<rect x="63.3" y="58.5" class="st1" width="11.3" height="3"/>
	</g>
</g>
</svg>
