<?xml version="1.0" encoding="utf-8"?>
<!-- Generator: Adobe Illustrator 18.1.1, SVG Export Plug-In . SVG Version: 6.00 Build 0)  -->
<!DOCTYPE svg PUBLIC "-//W3C//DTD SVG 1.1//EN" "http://www.w3.org/Graphics/SVG/1.1/DTD/svg11.dtd">
<svg version="1.1" id="Layer_1" xmlns="http://www.w3.org/2000/svg" xmlns:xlink="http://www.w3.org/1999/xlink" x="0px" y="0px"
	 viewBox="0 0 960 560" style="enable-background:new 0 0 960 560;" xml:space="preserve">
<style type="text/css">
	.st0{fill:#B7B3A7;}
</style>
<g>
	<path class="st0" d="M530.9,132.8c62.7,62.7,62.7,164.4,0,227.1s-164.4,62.7-227.1,0s-62.7-164.4,0-227.1S468.2,70.1,530.9,132.8z
		 M336.2,165.2c-44.8,44.8-44.8,117.5,0,162.3s117.5,44.8,162.3,0c44.8-44.8,44.8-117.5,0-162.3C453.7,120.3,381,120.3,336.2,165.2z
		"/>
	<g>
		<g>
			<path class="st0" d="M655.2,515.9c-6.9,0-13.8-2.6-19.1-7.9L505.4,377.2c-10.6-10.5-10.6-27.7,0-38.2c10.5-10.6,27.7-10.6,38.2,0
				l130.7,130.7c10.6,10.5,10.6,27.7,0,38.2C669.1,513.3,662.2,515.9,655.2,515.9z"/>
		</g>
	</g>
</g>
</svg>
