<?xml version="1.0" encoding="utf-8"?>
<!-- Generator: Adobe Illustrator 18.1.1, SVG Export Plug-In . SVG Version: 6.00 Build 0)  -->
<!DOCTYPE svg PUBLIC "-//W3C//DTD SVG 1.1//EN" "http://www.w3.org/Graphics/SVG/1.1/DTD/svg11.dtd">
<svg version="1.1" id="Layer_1" xmlns="http://www.w3.org/2000/svg" xmlns:xlink="http://www.w3.org/1999/xlink" x="0px" y="0px"
	 viewBox="0 0 131 131" style="enable-background:new 0 0 131 131;" xml:space="preserve">
<style type="text/css">
	.st0{fill:#58595B;}
	.st1{fill:#FFFFFF;}
</style>
<g>
	<path class="st0" d="M131,65.5c0,36.2-29.3,65.5-65.5,65.5C29.3,131,0,101.7,0,65.5C0,29.3,29.3,0,65.5,0
		C101.7,0,131,29.3,131,65.5z"/>
	<g>
		<path class="st1" d="M104.2,33.5c-3.2,1.9-6.8,3.3-10.7,4.1c-3.1-3.3-7.4-5.3-12.3-5.3c-9.3,0-16.8,7.5-16.8,16.8
			c0,1.3,0.1,2.6,0.4,3.8c-14-0.7-26.3-7.4-34.6-17.6c-1.4,2.5-2.3,5.4-2.3,8.4c0,5.8,3,11,7.5,14c-2.8-0.1-5.3-0.8-7.6-2.1
			c0,0.1,0,0.1,0,0.2c0,8.1,5.8,14.9,13.5,16.5c-1.4,0.4-2.9,0.6-4.4,0.6c-1.1,0-2.1-0.1-3.2-0.3c2.1,6.7,8.3,11.5,15.7,11.7
			c-5.8,4.5-13,7.2-20.9,7.2c-1.4,0-2.7-0.1-4-0.2c7.4,4.8,16.3,7.5,25.7,7.5c30.9,0,47.8-25.6,47.8-47.8c0-0.7,0-1.5,0-2.2
			c3.3-2.4,6.1-5.3,8.4-8.7c-3,1.3-6.2,2.2-9.6,2.6C100.3,40.7,102.9,37.4,104.2,33.5z"/>
	</g>
</g>
</svg>
